# xmcd
#
# Track frame offsets: 
#        150
#        14021
#        27869
#        42800
#        57021
#        73287
#        94828
#        108977
#        128418
#        143236
#        155242
#        172510
#
# Disc length: 2542 seconds
#
# Revision: 1
# Processed by: cddbd v1.5.2PL0 Copyright (c) Steve Scherf et al.
# Submitted via: ExactAudioCopy v0.99pb5
#
DISCID=9a09ec0c
DTITLE=Thibaut Derien - Le comte d'Apothicaire 
DYEAR=2010
DGENRE=Chanson
TTITLE0=Le Far West
TTITLE1=Coeur d'artichaut
TTITLE2=Le poil dans la main
TTITLE3=Peintre en sentiments en duo avec Clarika
TTITLE4=Mon disque dort
TTITLE5=Le comte d'Apothicaire
TTITLE6=Fidele au poste
TTITLE7=La guerre du feu
TTITLE8=Les acouphènes en duo avec François Hadji-Lazaro
TTITLE9=Le goût de la vie
TTITLE10=Rue Germain Pilon
TTITLE11=Le tour de cadran
EXTD=
EXTT0=
EXTT1=
EXTT2=
EXTT3=
EXTT4=
EXTT5=
EXTT6=
EXTT7=
EXTT8=
EXTT9=
EXTT10=
EXTT11=
PLAYORDER=
